<svg width="20" height="20" viewBox="0 0 20 20" fill="none" xmlns="http://www.w3.org/2000/svg">
<path fill-rule="evenodd" clip-rule="evenodd" d="M2.5 4C1.94772 4 1.5 4.44772 1.5 5C1.5 5.55228 1.94772 6 2.5 6H2.50833C3.06062 6 3.50833 5.55228 3.50833 5C3.50833 4.44772 3.06062 4 2.50833 4H2.5ZM6.66629 4C6.11401 4 5.66629 4.44772 5.66629 5C5.66629 5.55228 6.11401 6 6.66629 6H17.4996C18.0519 6 18.4996 5.55228 18.4996 5C18.4996 4.44772 18.0519 4 17.4996 4H6.66629ZM6.66629 9C6.11401 9 5.66629 9.44772 5.66629 10C5.66629 10.5523 6.11401 11 6.66629 11H17.4996C18.0519 11 18.4996 10.5523 18.4996 10C18.4996 9.44772 18.0519 9 17.4996 9H6.66629ZM5.66629 15C5.66629 14.4477 6.11401 14 6.66629 14H17.4996C18.0519 14 18.4996 14.4477 18.4996 15C18.4996 15.5523 18.0519 16 17.4996 16H6.66629C6.11401 16 5.66629 15.5523 5.66629 15ZM1.5 10C1.5 9.44772 1.94772 9 2.5 9H2.50833C3.06062 9 3.50833 9.44772 3.50833 10C3.50833 10.5523 3.06062 11 2.50833 11H2.5C1.94772 11 1.5 10.5523 1.5 10ZM2.5 14C1.94772 14 1.5 14.4477 1.5 15C1.5 15.5523 1.94772 16 2.5 16H2.50833C3.06062 16 3.50833 15.5523 3.50833 15C3.50833 14.4477 3.06062 14 2.50833 14H2.5Z" fill="#18181B"/>
</svg>
